<svg xmlns="http://www.w3.org/2000/svg"><style>:root svg:not(:target){display:none}</style><svg fill="none" viewBox="0 0 32 12" id="arrow"><path stroke="#000" stroke-width="2" d="M0 6h26"></path><path fill="#000" d="m32 6-6.75 5.2v-10.4z"></path></svg><svg fill="none" viewBox="0 0 140 140" id="catgo"><circle cx="70" cy="70" r="50" fill="#68B738"></circle><path fill="#000" d="M124.12 45.76a15 15 0 0 1 4.5-4.6c1-.7 1.6-.7 2.2.6.8 1.9 1.5 3.9.9 6a2.3 2.3 0 0 0 .4 2.1c.6.8 1.1 1.6 1.6 2.3a6.3 6.3 0 0 1 .9 6.2 5.4 5.4 0 0 0-.2 3.1q.3 1.5 0 3a3.75 3.75 0 0 1-2.7 3.2 5.2 5.2 0 0 0-3.2 2 1 1 0 0 1-.9.5c-1.2.2-4.2-2.5-4.2-3.7v-.6c.1-3.6-.1-3.9-3.4-5.4a4.4 4.4 0 0 1-1.8-1.2c-.6-.8-1.4-.7-2.3-.4s-1.4.9-1.3 1.9q.45 3.64.3 7.3 0 .41.2.8c3.1 4.5 4.3 9.8 5.8 14.9 1.2 3.9 3.4 6 7.4 6.3q.96.08 1.9.3a4.2 4.2 0 0 1 3.4 3.2c.7 2.1.3 2.6-1.8 2.6h-6.5a3.2 3.2 0 0 1-2.3-.8 12 12 0 0 0-3.4-2 7.3 7.3 0 0 1-3.4-2.6 29 29 0 0 0-4-4.5c-2.8-2.9-5.8-5.7-8.4-8.7a11.4 11.4 0 0 1-3.2-7.6c0-.9-.2-1.3-1.2-.9q-.46.3-1 .3c-2.8 0-4.2 1.7-5.2 4.2-.9 2.1-2.1 4.1-3.2 6.2a10 10 0 0 0-1 4.2c0 2.4.6 3.2 2.8 4 1.4.5 2.7 1 3.4 2.4.8 1.6.6 2-1.1 2.1h-6.8a1.9 1.9 0 0 1-1.9-1.1l-1.8-3a6 6 0 0 1-.7-5.4c.43-1.74.47-3.55.1-5.3a8.4 8.4 0 0 1 1.7-7c.6-.7.6-1-.4-1.2a50 50 0 0 1-11.87-4.13l-.03-.07c-3.2-1.2-3.8-1-4.7 2.3-.8 2.8-1.6 5.6-2.2 8.5-.7 3.2.1 6.2 1.1 9.2.4 1.2 1.6 1.1 2.5 1.4 2 .6 3.7 1.4 4.5 3.5.7 1.6.6 1.8-1.1 1.8s-3.4-.1-5.2 0a6.7 6.7 0 0 1-4.2-1.4c-4.8-3.2-6.2-8.1-6.6-13.4-.2-3.3-2-5.9-4.1-8.4-.4-.5-.8-.7-1.4-.3a44 44 0 0 1-6.7 3 26.7 26.7 0 0 0-12.2 8.8 10.6 10.6 0 0 0-2.2 5.1c-.3 1.8.2 2.6 2 3.1s2.7 1.5 2.9 3.4c.1.8-.2 1.2-1 1.2h-8.1a1.7 1.7 0 0 1-1.3-.8 8.6 8.6 0 0 1-1.9-5.5q-.08-5.2.9-10.3a6.3 6.3 0 0 1 3.4-4.8c5.9-2.8 9-8.1 11.8-13.6.6-1.1.1-1.3-.9-1.2-2.8.39-5.45 1.49-7.7 3.2a71 71 0 0 0-8.3 7.1 16.7 16.7 0 0 1-10.3 4.9c-7.3.4-10.7-3.7-10.4-10.3a9.7 9.7 0 0 1 2.4-6.1 4.25 4.25 0 0 1 4.5-1.5c1.5.4 1.9 1.2 1.3 2.7-.3.6-.7 1.1-1 1.7a8 8 0 0 0-1 2c-1.1 3 .4 5.1 3.5 5.4 3.3.3 6-1.1 8.5-3.1q4.53-3.63 8-8.3a20.8 20.8 0 0 1 14.4-8.1c2.3-.3 4.3-1.3 6.5-1.9a42 42 0 0 1 12.7-1.8 13 13 0 0 0 5.8-1.1c4.9-2 10-2 15.1-1 4 .8 8 1.8 11.9 2.8 2.32.43 4.7.36 7-.2a68 68 0 0 1 13.4-2c2.96-.15 5.91.44 8.6 1.7 2 .9 2 .9 1.5 2.8"></path></svg><svg fill="none" viewBox="0 0 140 140" id="catsit"><circle cx="70" cy="70" r="50" fill="#68B738"></circle><path fill="#000" d="M89.84 14h-.38a3.5 3.5 0 0 0-1.46 1.59q-.85 1.63-1.29 3.41a1.6 1.6 0 0 1-1.48 1.34 7.3 7.3 0 0 0-5.23 3.78 27 27 0 0 0-1.85 4c-1.42 3.68-2.51 7.48-3.85 11.19-.63 1.69-.66 1.69-2.56 1.69-2.27 0-2.11-.35-2.14 2.15 0 .79.24 1.19 1.08 1.15.26 0 .65-.13.75.21s-.24.49-.44.69a9 9 0 0 1-4.33 2.44c-1.9.51-3.84.91-5.69 1.53-4.75 1.59-9.14 3.81-12.56 7.57a28 28 0 0 0-4.74 7.84c-3.67 8.64-5.45 17.74-6.83 26.93q-.95 6.46-1.46 13c-.18 2.14-.38 4.31-.38 6.49h33.33q.09-.68-.23-1.28a5 5 0 0 0-3.83-3.07c-.7-.16-.78-.37-.35-.92q1.06-1.42 1.59-3.1c1.63-4.81 2.26-9.83 3.05-14.8a30 30 0 0 1 3.44-10.83 22 22 0 0 1 5.59-6.37c.83-.63.86-.63 1 .44.1.71.12 1.44.17 2.16q.45 7.09-.18 14.18a62 62 0 0 0-.15 11q.6 6.4 2.27 12.59h13.3a5.4 5.4 0 0 0-4.24-4.44 9 9 0 0 0-3.76.2c-.6.14-.85 0-.9-.65a56 56 0 0 1 1-15.82q2-9 3.06-18.18a18 18 0 0 1 2.28-7c1.19-2.12 2.23-4.32 3.4-6.45a5.9 5.9 0 0 0 .42-5.19q-.39-1.08-.86-2.11c-1-1.95-2-3.88-2.92-5.85-.49-1-.38-1.12.71-1.15 1.63 0 1.63 0 1.66-1.64v-.66c0-.69-.26-1.07-1-1h-1.52c-.69 0-.89-.29-.72-1a6.2 6.2 0 0 1 5.13-4.43 22 22 0 0 1 6.62.43 1 1 0 0 0 1.25-.64q.6-1.5 1.29-3a1 1 0 0 0-.1-1.14c-3.2-4.06-6.67-7.85-11.4-10.28a1.5 1.5 0 0 1-.88-1.12 20 20 0 0 0-1.27-4.16 3.5 3.5 0 0 0-1.41-1.72"></path></svg><svg fill="none" viewBox="0 0 40 40" id="flask"><path fill="#fff" d="M17.86 6c-1.63 0-2.9 1.37-2.9 3.1s1.27 3.1 2.9 3.1 2.9-1.37 2.9-3.1-1.27-3.1-2.9-3.1m0 1.19c1 0 1.72.84 1.72 1.91 0 1-.79 1.91-1.72 1.91-1 0-1.72-.84-1.72-1.91 0-1 .78-1.91 1.72-1.91m-10.86 23.7c0 1.19.4 2.19 1.36 3 1 .87 2.17.8 2.17.8h19c.78 0 1.82-.39 2.63-1.47.84-1 .79-2.37.79-2.37v-17.32c0-.44-.11-.6-.74-.6-.64 0-.7.27-.7.6v17.31a2.5 2.5 0 0 1-.73 1.74c-.74.63-1.45.54-1.45.54s-18.1 0-19-.02c-.35-.07-.91-.2-1.46-.92-.5-.72-.4-1.64-.4-1.64v-17.32c0-.46-.24-.64-.73-.64q-.74-.01-.74.59zm16.3-16.41c-1.1.24-2.18.38-4.26 2.37s-3.62 1.91-5.16 1.82-3.17-1.55-3.44-1.91c-.34-.36-.9-.12-1.09.12-.15.23-.15.64.11 1 1.27 1.19 2.45 2.1 4.7 2.28a7.5 7.5 0 0 0 5.9-2.28c1.44-1.46 2.16-1.73 3.25-1.91a6.3 6.3 0 0 1 5.07 1.27c1 1.1 1.26.79 1.54.48.54-.72-.23-1.28-1.09-1.92a7.2 7.2 0 0 0-5.52-1.28zm-9.06 7.2c-1.18 0-2.08 1-2.08 2.28s.9 2.28 2.08 2.28 2.08-1 2.08-2.28-.9-2.28-2.08-2.28m11.77.79c-1.54 0-2.8 1.36-2.8 3 0 1.65 1.26 3.01 2.8 3.01s2.8-1.36 2.8-3c0-1.65-1.26-3.01-2.8-3.01m0 1.45c.8 0 1.44.7 1.44 1.55 0 .87-.65 1.55-1.44 1.55-.8 0-1.45-.7-1.45-1.55s.65-1.55 1.45-1.55"></path></svg><svg fill="none" viewBox="0 0 80 80" id="gift"><path fill="#fff" d="M65.02 34.63h-49.99a3.2 3.2 0 0 1-3.18-3.16v-9.47a3.2 3.2 0 0 1 3.18-3.16h49.98a3.17 3.17 0 0 1 3.19 3.16v9.47a3.17 3.17 0 0 1-3.18 3.16m-49.99-13.37c-.4 0-.74.34-.74.74v9.47c0 .4.33.74.74.74h49.98c.41 0 .75-.33.75-.74v-9.47c0-.4-.34-.74-.75-.74z"></path><path fill="#fff" d="M58.04 67.08h-36.04a6.1 6.1 0 0 1-6.13-6.09v-27.57c0-.67.55-1.21 1.22-1.21.68 0 1.22.54 1.22 1.21v27.57a3.7 3.7 0 0 0 3.69 3.67h36.04a3.7 3.7 0 0 0 3.7-3.67v-27.57a1.22 1.22 0 0 1 2.44 0v27.57a6.1 6.1 0 0 1-6.14 6.1"></path><path fill="#fff" d="M40.02 67.08c-.67 0-1.22-.54-1.22-1.2v-32.46c0-.67.55-1.21 1.22-1.21.68 0 1.22.54 1.22 1.21v32.45c0 .67-.54 1.21-1.22 1.21m-15.21-45.82a7.8 7.8 0 0 1-3.17-10.6 7.9 7.9 0 0 1 10.66-3.16c5.82 3.13 8.96 11.86 9.09 12.23l-2.3.8c-.03-.08-2.96-8.22-7.95-10.9a5.45 5.45 0 0 0-7.36 2.17 5.4 5.4 0 0 0 2.2 7.33z"></path><path fill="#fff" d="m55.23 21.26-1.16-2.14a5.38 5.38 0 0 0-1.03-9.92 5.4 5.4 0 0 0-4.14.43c-4.98 2.68-7.91 10.82-7.94 10.9l-2.3-.8c.13-.37 3.27-9.1 9.08-12.23a7.86 7.86 0 0 1 11.29 9.1c-.6 2-1.95 3.66-3.8 4.66m7.72 29.6h-45.86c-.67 0-1.22-.55-1.22-1.21 0-.67.55-1.22 1.22-1.22h45.86a1.21 1.21 0 1 1 0 2.42"></path></svg><svg fill="none" viewBox="0 0 27 34" id="htmlacademy"><path fill="#666" d="m13.64.02-.14-.02-13.5 1.4v24.61l13.5 7.99 13.5-7.99v-24.6zm11.6 25-11.74 6.94-11.73-6.94v-10.1l11.68 6.93.02 1.25-8.02-4.75v1.23l8.04 4.8.02 1.3-8.05-4.76v1.22l8.04 4.81 8.12-4.83v-5.21l3.62-2.15zm0-11.57-3.23 1.88-1.48.88-7.06-4.19-.01 1.23 6.04 3.57-.06.03-.13.07-.86.5-4.98-2.95-.01 1.22 3.93 2.33-.93.61-.02.01-2.97-1.74-.01 1.23 1.94 1.13-1.98 1.19-11.62-6.87 11.63-6.96zm0-1.22-11.8-6.92-11.67 6.91v-9.23l11.73-1.23 11.73 1.23z"></path></svg><svg fill="none" viewBox="0 0 40 40" id="leaf"><path fill="#fff" d="M32.78 6.77a.95.95 0 0 0-.92-.77c-4.94.03-16.95.92-21.8 8.38-2.51 3.88-2.73 8.91-.64 14.96l.07.13a26 26 0 0 0-1.04 3.32 1 1 0 0 0 .72 1.19l.2.02c.43 0 .82-.32.91-.79.02-.1 2.4-10.37 10.85-16.38.44-.3.55-.92.26-1.38a.9.9 0 0 0-1.3-.28c-4.78 3.4-7.73 8-9.47 11.65-1.24-4.57-.91-8.37.99-11.3 3.74-5.76 12.62-7.15 17.98-7.45-1.15 1.8-2.41 5.1-2.41 10.93q0 4.7-2.47 7.14c-2.62 2.6-6.88 2.83-10 2.58-.5-.04-.96.38-1 .93s.35 1.03.87 1.07q.93.08 1.98.08c3.17 0 6.87-.66 9.43-3.2 2.03-2 3.06-4.9 3.06-8.6 0-9.1 3.22-11.1 3.23-11.1.4-.21.6-.68.5-1.13"></path></svg><svg fill="none" viewBox="0 0 20 20" id="mail"><path stroke="#000" stroke-linecap="round" stroke-linejoin="round" d="M1.5 8.5v8h17v-8m-17-5h17v2l-8.5 6-8.5-6z"></path></svg><svg fill="none" viewBox="0 0 20 20" id="phone"><path stroke="#000" stroke-linecap="round" stroke-linejoin="round" d="M10 10h8.5m0 0-2.5-2.5m2.5 2.5-2.5 2.5m-7.5-10v5h-3v5h3v5h-2.5c-1.5 0-2.5-1-2.5-2.5v-10c0-1.5 1-2.5 2.5-2.5z"></path></svg><svg fill="none" viewBox="0 0 30 30" id="plus"><path stroke="#D3D3D3" stroke-width="2" d="M15 0v30m15-15h-30" vector-effect="non-scaling-stroke"></path></svg><svg fill="none" viewBox="0 0 40 40" id="scales"><path fill="#fff" d="M12.53 4c-1.06 0-1.06 1.6 0 1.6h6.64v1.6c-6.8.44-12.17 6.27-12.17 13.38 0 4.04 1.74 7.68 4.5 10.13.47.43.53 1.18.1 1.65l-1.53 1.56c-.75.7.36 1.76 1.03 1l2-2.04c.34-.34.86-.42 1.3-.21a12.6 12.6 0 0 0 11.05.06c.42-.21.96-.13 1.3.21l1.93 1.99c.68.64 1.65-.32 1.04-1l-1.45-1.5c-.44-.45-.38-1.2.11-1.64a13.5 13.5 0 0 0 4.59-10.22c0-7.11-5.4-12.95-12.21-13.36v-1.62h6.63c1.06 0 1.06-1.59 0-1.59zm-4.1 16.57c0-6.57 5.17-11.89 11.55-11.89 6.37 0 11.54 5.32 11.54 11.9s-5.17 11.9-11.54 11.9-11.55-5.32-11.55-11.9m10.75-8.14c0-1.1 1.65-1.1 1.65 0v8.69a.85.85 0 0 1-.85.85.8.8 0 0 1-.8-.8zm-4.97 2.63a1.16 1.16 0 0 0 0-2.31 1.16 1.16 0 0 0 0 2.3zm11.54 0a1.16 1.16 0 0 0 0-2.31 1.16 1.16 0 0 0 0 2.3zm-10.38 12.67c0 1.54-2.32 1.54-2.32 0s2.32-1.54 2.32 0m4.61 3.46a1.16 1.16 0 1 0 .22-2.3 1.16 1.16 0 0 0-.22 2.3m-8.08-10.45a1.16 1.16 0 1 1-2.3.23 1.16 1.16 0 0 1 2.3-.23m17.3 1.16a1.16 1.16 0 1 0 .23-2.3 1.16 1.16 0 0 0-.22 2.3m-2.3 5.84c0 1.53-2.31 1.53-2.31 0 0-1.55 2.31-1.55 2.31 0"></path></svg><svg fill="none" viewBox="0 0 40 40" id="tableware"><path fill="#fff" fill-rule="evenodd" d="M26.62 5.08a1 1 0 0 1 1.09.21c.9.91 2.1 2.88 3.06 5.92a43 43 0 0 1 1.73 12.79 1 1 0 0 1-1 1h-3.5v9a1 1 0 1 1-2 0v-28a1 1 0 0 1 .62-.92m1.38 17.92h2.5a40 40 0 0 0-1.64-11.19 22 22 0 0 0-.86-2.3zm-14-18a1 1 0 0 1 1 1v28a1 1 0 1 1-2 0v-28a1 1 0 0 1 1-1" clip-rule="evenodd"></path><path fill="#fff" fill-rule="evenodd" d="M9.5 5a1 1 0 0 1 1 1v5.5c0 .56.2 1.32.7 1.92.48.56 1.31 1.08 2.8 1.08a1 1 0 1 1 0 2 5.4 5.4 0 0 1-4.33-1.8 5 5 0 0 1-1.17-3.2v-5.5a1 1 0 0 1 1-1" clip-rule="evenodd"></path><path fill="#fff" fill-rule="evenodd" d="M18.5 5a1 1 0 0 0-1 1v5.5c0 .56-.2 1.32-.7 1.92-.48.56-1.31 1.08-2.8 1.08a1 1 0 0 0 0 2 5.4 5.4 0 0 0 4.33-1.8 5 5 0 0 0 1.17-3.2v-5.5a1 1 0 0 0-1-1" clip-rule="evenodd"></path></svg><svg fill="none" viewBox="0 0 40 40" id="thumb"><rect width="38" height="38" x="1" y="1" fill="#fff" rx="19"></rect><rect width="38" height="38" x="1" y="1" stroke="#666" stroke-width="2" rx="19"></rect><path fill="#666" d="m16 11-8 9 8 9zm16 9-8-9v18z"></path></svg><svg fill="none" viewBox="0 0 28 28" id="social_telegram"><path fill="#666" fill-rule="evenodd" d="M23.46 6.15q.28.24.23.61l-2.63 15.76a.66.66 0 0 1-1.01.44l-7.88-5.25a.66.66 0 0 1-.15-.96l2.61-3.26-4.36 2.9a.7.7 0 0 1-.65.05l-5.26-2.63a.66.66 0 0 1 .08-1.2l18.38-6.57a.7.7 0 0 1 .64.11m-17.13 7.17 3.53 1.77 7.56-5.04a.66.66 0 0 1 .88.96l-4.8 6 6.43 4.3 2.28-13.66z" clip-rule="evenodd"></path></svg><svg fill="none" viewBox="0 0 28 28" id="social_vkontakte"><path fill="#666" d="M1 8.34q0-1.29 1.55-1.38l3.97.02q.4 0 .53.38.6 1.89 1.37 3.25.76 1.38 1.99 3.16.1.23.34.23.19 0 .3-.18l.07-.28.03-4.35q0-.45-.23-.6t-.83-.23q-.48-.07-.48-.55 0-.1.02-.15.57-1.63 3.2-1.63l1.5-.03q1 0 1.67.48t.67 1.5v5.72q.18.12.34.12.4 0 .7-.45 2.92-3.87 3.17-5.18 0-.03.05-.13.19-.38.61-.65.43-.28.75-.38l.24-.05h4.13l.26.03q.53 0 .83.47.1.15.15.33a2 2 0 0 1 .06.55v.18a6 6 0 0 1-.94 2.2q-.75 1.17-1.93 2.53t-1.47 1.78q-.24.3-.24.56 0 .2.21.45l3.9 4.63q.3.4.31.88 0 .57-.48.95t-1.14.43l-.46.02h-4.04l-.11.02-.1.01q-.6 0-1.1-.48-.19-.2-2.5-2.97a1 1 0 0 0-.38-.32 39 39 0 0 0-.53 2.24l-.08.42a1.4 1.4 0 0 1-1.12 1.06l-.37.02h-2.61q-2.22 0-4.41-1.9a19 19 0 0 1-3.96-4.95 48 48 0 0 1-3.28-7.05 2 2 0 0 1-.13-.73m16.01 6.51q-.55 0-1.01-.29a.9.9 0 0 1-.45-.79v-5.78q0-.51-.27-.72t-.93-.21l-1.52.05q-1.14 0-1.73.37 1.17.54 1.17 1.71v4.43a1.5 1.5 0 0 1-.53 1.04q-.48.42-1.07.42-.8 0-1.22-.73a26 26 0 0 1-3.1-5.63l-.23-.66-3.55-.02q-.35 0-.38.03-.04.04-.04.22 0 .22.05.48l.56 1.4q2.23 5.46 4.86 8.6 2.62 3.15 5.16 3.15h2.66q.16 0 .24-.09t.13-.34l.06-.25.5-2.21q.22-.45.38-.6.3-.29.69-.28.64 0 1.3.73l2.27 2.71q.22.33.45.33h4.4q.8 0 .8-.38l-.08-.25-3.87-4.55q-.45-.53-.45-1.13 0-.61.43-1.16.35-.51 1.34-1.67 1-1.17 1.75-2.19t.98-1.85l.08-.33-.02-.16q0-.11-.03-.19h-4.18q-.4.15-.64.45l-.16.48q-.66 1.73-3.5 5.36-.55.5-1.3.5"></path></svg><svg fill="none" viewBox="0 0 28 28" id="social_youtube"><path fill="#666" d="m17.85 13.8-5.24-3.5a.65.65 0 0 0-1.01.55v6.98a.65.65 0 0 0 1.01.54l5.24-3.49a.65.65 0 0 0 0-1.09m-4.94 2.8v-4.53l3.4 2.27zm12.48-8.56a2.4 2.4 0 0 0-1.45-1.63c-3.72-1.43-9.69-1.41-9.94-1.41s-6.22-.02-9.94 1.4a2.4 2.4 0 0 0-1.45 1.64 25 25 0 0 0-.61 6.3c0 3.26.33 5.22.61 6.3a2.4 2.4 0 0 0 1.45 1.63c3.72 1.43 9.69 1.4 9.94 1.4h.08c.75 0 6.31-.04 9.86-1.4a2.4 2.4 0 0 0 1.45-1.64c.28-1.07.61-3.03.61-6.3 0-3.25-.33-5.22-.61-6.29m-1.27 12.27a1.1 1.1 0 0 1-.65.74c-3.5 1.34-9.4 1.32-9.47 1.32s-5.98.02-9.47-1.32a1.1 1.1 0 0 1-.65-.74c-.27-1-.57-2.85-.57-5.97s.3-4.97.57-5.97a1.1 1.1 0 0 1 .65-.74c3.5-1.34 9.4-1.32 9.47-1.32s5.98-.02 9.47 1.32a1.1 1.1 0 0 1 .65.74c.27 1 .57 2.85.57 5.97s-.3 4.96-.57 5.97"></path></svg><svg fill="none" viewBox="0 0 32 32" id="tick_checkbox"><path fill="#68B738" d="m13 22.5-7.6-8.6-1.4 1.58 9 10.19 15-16.97-1.4-1.7z"></path></svg><svg fill="none" viewBox="0 0 32 32" id="tick_radio"><circle cx="16" cy="16" r="9" fill="#68B738"></circle></svg></svg>