<svg xmlns="http://www.w3.org/2000/svg" viewBox="0 0 118 21"><path fill="#111" d="M1.42 19.22a8 8 0 0 1-1.4-5.06v-7.32c-.13-1.8.36-3.6 1.38-5.1q1.4-1.75 4.76-1.74 3.38 0 4.56 1.53a6.4 6.4 0 0 1 1.33 4.38v1.71h-4.14v-1.86q0-.74-.13-1.46a1.6 1.6 0 0 0-.47-.93 1.6 1.6 0 0 0-1.16-.36q-.46-.07-.87.14-.41.2-.63.6a5 5 0 0 0-.34 2.14v9.28q-.07 1.11.39 2.14.22.38.62.57.4.2.83.15.43.06.82-.14.4-.2.59-.59.36-1.03.3-2.13v-1.95h4.15v1.69a7 7 0 0 1-1.23 4.5q-1.32 1.59-4.57 1.59c-2.16 0-3.85-.59-4.79-1.78m16.28-18.94h4.76l4 20.48h-3.94l-.72-4.53h-3.32l-.8 4.5h-4.01zm3.66 13.38-1.26-8.23-1.25 8.23zm8.18-10.3h-3.25v-3.08h10.75v3.08h-3.21v17.37h-4.3z"/><path fill="#444" d="M45.46.28h8.15v2.13h-5.21v6.75h4.23v2.02h-4.23v7.5h5.26v2.05h-8.2zm10.56 0h2l6.02 13.58v-13.58h2.45v20.48h-1.88l-6.01-13.96v13.93h-2.49zm13.7 0h8.14v2.13h-5.21v6.75h4.27v2.02h-4.23v7.5h5.23v2.05h-8.2zm10.55 0h4.23a7.2 7.2 0 0 1 4.68 1.28q1.5 1.27 1.5 4.15 0 3.9-2.6 4.77l3 10.25h-2.84l-2.76-9.6h-2.27v9.6h-2.94zm4.01 8.78c.97.09 1.93-.18 2.7-.74a3.5 3.5 0 0 0 .83-2.65 6 6 0 0 0-.3-1.95 1.8 1.8 0 0 0-1-1.05 5 5 0 0 0-2.05-.34h-1.29v6.77zm10.34 10.16a9 9 0 0 1-1.27-5.22v-6.82q-.05-2 .5-3.9c.3-.96.9-1.79 1.75-2.35a6 6 0 0 1 3.36-.82 5.4 5.4 0 0 1 4.19 1.44 6.7 6.7 0 0 1 1.28 4.51v.76h-2.75v-.63q.02-1.14-.18-2.26-.16-.73-.77-1.2a3 3 0 0 0-1.72-.4c-.65-.05-1.3.14-1.81.55-.42.38-.69.89-.77 1.44q-.2 1.2-.17 2.43v7.6a7 7 0 0 0 .59 3.36 2.8 2.8 0 0 0 2.26 1.03 2.9 2.9 0 0 0 2.22-1.11c.48-1.13.69-2.35.6-3.56v-1.44h-2.66v-2.02h5.31v10.12h-1.81l-.3-2.35a3.6 3.6 0 0 1-1.4 1.93 3.7 3.7 0 0 1-2.33.67 4.8 4.8 0 0 1-4.12-1.76m16.06-5.71-4.54-13.23h2.72l3.22 9.87 3.17-9.87h2.75l-4.5 13.23v7.22h-2.81z"/></svg>