<svg xmlns="http://www.w3.org/2000/svg" fill="none" viewBox="0 0 140 140"><circle cx="70" cy="70" r="50" fill="#68B738"/><path fill="#000" d="M124.12 45.76a15 15 0 0 1 4.5-4.6c1-.7 1.6-.7 2.2.6.8 1.9 1.5 3.9.9 6a2.3 2.3 0 0 0 .4 2.1c.6.8 1.1 1.6 1.6 2.3a6.3 6.3 0 0 1 .9 6.2 5.4 5.4 0 0 0-.2 3.1q.3 1.5 0 3a3.75 3.75 0 0 1-2.7 3.2 5.2 5.2 0 0 0-3.2 2 1 1 0 0 1-.9.5c-1.2.2-4.2-2.5-4.2-3.7v-.6c.1-3.6-.1-3.9-3.4-5.4a4.4 4.4 0 0 1-1.8-1.2c-.6-.8-1.4-.7-2.3-.4s-1.4.9-1.3 1.9q.45 3.64.3 7.3 0 .41.2.8c3.1 4.5 4.3 9.8 5.8 14.9 1.2 3.9 3.4 6 7.4 6.3q.96.08 1.9.3a4.2 4.2 0 0 1 3.4 3.2c.7 2.1.3 2.6-1.8 2.6h-6.5a3.2 3.2 0 0 1-2.3-.8 12 12 0 0 0-3.4-2 7.3 7.3 0 0 1-3.4-2.6 29 29 0 0 0-4-4.5c-2.8-2.9-5.8-5.7-8.4-8.7a11.4 11.4 0 0 1-3.2-7.6c0-.9-.2-1.3-1.2-.9q-.46.3-1 .3c-2.8 0-4.2 1.7-5.2 4.2-.9 2.1-2.1 4.1-3.2 6.2a10 10 0 0 0-1 4.2c0 2.4.6 3.2 2.8 4 1.4.5 2.7 1 3.4 2.4.8 1.6.6 2-1.1 2.1h-6.8a1.9 1.9 0 0 1-1.9-1.1l-1.8-3a6 6 0 0 1-.7-5.4c.43-1.74.47-3.55.1-5.3a8.4 8.4 0 0 1 1.7-7c.6-.7.6-1-.4-1.2a50 50 0 0 1-11.87-4.13l-.03-.07c-3.2-1.2-3.8-1-4.7 2.3-.8 2.8-1.6 5.6-2.2 8.5-.7 3.2.1 6.2 1.1 9.2.4 1.2 1.6 1.1 2.5 1.4 2 .6 3.7 1.4 4.5 3.5.7 1.6.6 1.8-1.1 1.8s-3.4-.1-5.2 0a6.7 6.7 0 0 1-4.2-1.4c-4.8-3.2-6.2-8.1-6.6-13.4-.2-3.3-2-5.9-4.1-8.4-.4-.5-.8-.7-1.4-.3a44 44 0 0 1-6.7 3 26.7 26.7 0 0 0-12.2 8.8 10.6 10.6 0 0 0-2.2 5.1c-.3 1.8.2 2.6 2 3.1s2.7 1.5 2.9 3.4c.1.8-.2 1.2-1 1.2h-8.1a1.7 1.7 0 0 1-1.3-.8 8.6 8.6 0 0 1-1.9-5.5q-.08-5.2.9-10.3a6.3 6.3 0 0 1 3.4-4.8c5.9-2.8 9-8.1 11.8-13.6.6-1.1.1-1.3-.9-1.2-2.8.39-5.45 1.49-7.7 3.2a71 71 0 0 0-8.3 7.1 16.7 16.7 0 0 1-10.3 4.9c-7.3.4-10.7-3.7-10.4-10.3a9.7 9.7 0 0 1 2.4-6.1 4.25 4.25 0 0 1 4.5-1.5c1.5.4 1.9 1.2 1.3 2.7-.3.6-.7 1.1-1 1.7a8 8 0 0 0-1 2c-1.1 3 .4 5.1 3.5 5.4 3.3.3 6-1.1 8.5-3.1q4.53-3.63 8-8.3a20.8 20.8 0 0 1 14.4-8.1c2.3-.3 4.3-1.3 6.5-1.9a42 42 0 0 1 12.7-1.8 13 13 0 0 0 5.8-1.1c4.9-2 10-2 15.1-1 4 .8 8 1.8 11.9 2.8 2.32.43 4.7.36 7-.2a68 68 0 0 1 13.4-2c2.96-.15 5.91.44 8.6 1.7 2 .9 2 .9 1.5 2.8"/></svg>