<svg xmlns="http://www.w3.org/2000/svg" fill="none" viewBox="0 0 67 50"><circle cx="33" cy="25" r="25" fill="#68B738"/><g clip-path="url(#a)"><path fill="#000" d="M60.56 13.88a8 8 0 0 1 2.25-2.3c.5-.35.8-.35 1.1.3.4.95.75 1.95.45 3a1.1 1.1 0 0 0 .2 1.05q.44.61.8 1.15a3.1 3.1 0 0 1 .45 3.1q-.28.76-.1 1.55.15.75 0 1.5a1.9 1.9 0 0 1-1.35 1.6 2.6 2.6 0 0 0-1.6 1 .5.5 0 0 1-.45.25c-.6.1-2.1-1.25-2.1-1.85v-.3c.05-1.8-.05-1.95-1.7-2.7a2 2 0 0 1-.9-.6c-.3-.4-.7-.35-1.15-.2s-.7.45-.65.95q.23 1.81.15 3.65 0 .2.1.4c1.55 2.25 2.15 4.9 2.9 7.45.6 1.95 1.7 3 3.7 3.15q.48.03.95.15a2.1 2.1 0 0 1 1.7 1.6c.35 1.05.15 1.3-.9 1.3h-3.25q-.65.03-1.15-.4a6 6 0 0 0-1.7-1 3.6 3.6 0 0 1-1.7-1.3 14 14 0 0 0-2-2.25c-1.4-1.45-2.9-2.85-4.2-4.35a5.7 5.7 0 0 1-1.6-3.8c0-.45-.1-.65-.6-.45a1 1 0 0 1-.5.15c-1.4 0-2.1.85-2.6 2.1-.45 1.05-1.05 2.05-1.6 3.1a5 5 0 0 0-.5 2.1c0 1.2.3 1.6 1.4 2 .7.25 1.35.5 1.7 1.2.4.8.3 1-.55 1.05h-3.4a.9.9 0 0 1-.95-.55l-.9-1.5a3 3 0 0 1-.35-2.7q.32-1.33.05-2.65a4.2 4.2 0 0 1 .85-3.5c.3-.35.3-.5-.2-.6a25 25 0 0 1-5.95-2.1c-1.6-.6-1.9-.5-2.35 1.15-.4 1.4-.8 2.8-1.1 4.25-.35 1.6.05 3.1.55 4.6.2.6.8.55 1.25.7 1 .3 1.85.7 2.25 1.75.35.8.3.9-.55.9s-1.7-.05-2.6 0c-.76.01-1.5-.23-2.1-.7-2.4-1.6-3.1-4.05-3.3-6.7-.1-1.65-1-2.95-2.05-4.2-.2-.25-.4-.35-.7-.15q-1.61.9-3.35 1.5a13.4 13.4 0 0 0-6.1 4.4 5.3 5.3 0 0 0-1.1 2.55c-.15.9.1 1.3 1 1.55s1.35.75 1.45 1.7q.09.6-.5.6h-4.05a.8.8 0 0 1-.65-.4 4.3 4.3 0 0 1-.95-2.75 25 25 0 0 1 .45-5.15 3.2 3.2 0 0 1 1.7-2.4c2.95-1.4 4.5-4.05 5.9-6.8.3-.55.05-.65-.45-.6-1.4.2-2.73.74-3.85 1.6a35 35 0 0 0-4.15 3.55 8.3 8.3 0 0 1-5.15 2.45c-3.65.2-5.35-1.85-5.2-5.15.03-1.13.46-2.2 1.2-3.05a2.1 2.1 0 0 1 2.25-.75c.75.2.95.6.65 1.35-.15.3-.35.55-.5.85q-.33.45-.5 1c-.55 1.5.2 2.55 1.75 2.7 1.65.15 3-.55 4.25-1.55q2.26-1.81 4-4.15a10.4 10.4 0 0 1 7.2-4.05c1.15-.15 2.15-.65 3.25-.95q3.1-.94 6.35-.9a6.5 6.5 0 0 0 2.9-.55c2.45-1 5-1 7.55-.5 2 .4 4 .9 5.95 1.4q1.76.32 3.5-.1 3.3-.85 6.7-1a9 9 0 0 1 4.3.85c1 .45 1 .45.75 1.4"/></g><defs><clipPath id="a"><path fill="#fff" d="M0 11h67v28h-67z"/></clipPath></defs></svg>