<svg xmlns="http://www.w3.org/2000/svg" fill="none" viewBox="0 0 140 140"><circle cx="70" cy="70" r="50" fill="#68B738"/><path fill="#000" d="M89.84 14h-.38a3.5 3.5 0 0 0-1.46 1.59q-.85 1.63-1.29 3.41a1.6 1.6 0 0 1-1.48 1.34 7.3 7.3 0 0 0-5.23 3.78 27 27 0 0 0-1.85 4c-1.42 3.68-2.51 7.48-3.85 11.19-.63 1.69-.66 1.69-2.56 1.69-2.27 0-2.11-.35-2.14 2.15 0 .79.24 1.19 1.08 1.15.26 0 .65-.13.75.21s-.24.49-.44.69a9 9 0 0 1-4.33 2.44c-1.9.51-3.84.91-5.69 1.53-4.75 1.59-9.14 3.81-12.56 7.57a28 28 0 0 0-4.74 7.84c-3.67 8.64-5.45 17.74-6.83 26.93q-.95 6.46-1.46 13c-.18 2.14-.38 4.31-.38 6.49h33.33q.09-.68-.23-1.28a5 5 0 0 0-3.83-3.07c-.7-.16-.78-.37-.35-.92q1.06-1.42 1.59-3.1c1.63-4.81 2.26-9.83 3.05-14.8a30 30 0 0 1 3.44-10.83 22 22 0 0 1 5.59-6.37c.83-.63.86-.63 1 .44.1.71.12 1.44.17 2.16q.45 7.09-.18 14.18a62 62 0 0 0-.15 11q.6 6.4 2.27 12.59h13.3a5.4 5.4 0 0 0-4.24-4.44 9 9 0 0 0-3.76.2c-.6.14-.85 0-.9-.65a56 56 0 0 1 1-15.82q2-9 3.06-18.18a18 18 0 0 1 2.28-7c1.19-2.12 2.23-4.32 3.4-6.45a5.9 5.9 0 0 0 .42-5.19q-.39-1.08-.86-2.11c-1-1.95-2-3.88-2.92-5.85-.49-1-.38-1.12.71-1.15 1.63 0 1.63 0 1.66-1.64v-.66c0-.69-.26-1.07-1-1h-1.52c-.69 0-.89-.29-.72-1a6.2 6.2 0 0 1 5.13-4.43 22 22 0 0 1 6.62.43 1 1 0 0 0 1.25-.64q.6-1.5 1.29-3a1 1 0 0 0-.1-1.14c-3.2-4.06-6.67-7.85-11.4-10.28a1.5 1.5 0 0 1-.88-1.12 20 20 0 0 0-1.27-4.16 3.5 3.5 0 0 0-1.41-1.72"/></svg>